<svg width="199" height="199"><defs id="SvgjsDefs2515"></defs><g id="SvgjsG2516" transform="translate(0, 0) scale(3.973295138888888)" feature="container" rel="inversefill" name="filled_container" xmlns:name="filledContainer_inversefill" fill="#2499dd"><circle cx="25" cy="25" r="25"></circle></g><g id="main_text" rel="mainfill" name="main_text" feature="main_text" xmlns:name="mainText_mainfill" groupname="main_text" fill="#ffffff" transform="translate(8, 99) scale(6.495810653785728)"><path d=""></path></g><g id="SvgjsG2518" rel="mainfill" name="symbol" feature="symbol" xmlns:name="symbol_mainfill" fill="#0b181d" transform="translate(13.099080509609646, 6.677476521995333) scale(1.8263888888888888)"><path xmlns="http://www.w3.org/2000/svg" d="M39.845,85.655c4.961-0.804,8.022,2.234,6.87,6.011c-0.651,2.135-3.704,2.893-3.705,2.892  c-43.654,6.338-43.63-16.75-28.282-20.856c-3.429-14.352,4.249-21.82,10.884-26.431c0.062-0.051,5.979-3.349,5.979-3.349  c4.427-2.034,5.225-6.333,5.225-6.333c-9.508-18.984,4.772-27.463,11.163-28.225c6.058-4.546,11.878-4.306,16.385-2.511  c-5.104,3.907-4.903,6.167-3.561,7.713c10.836,7.33,4.636,16.994,7.132,21.458c1.73,3.09-3.571,4.723-3.571,4.723  c-1.798,3.973-7.044,2.493-7.044,2.493c2.947,5.984,1.147,10.961,1.147,10.961c8.825,6.008,15.085,9.22,12.388,11.09  c-3.166,2.193-6.909-1.345-6.909-1.345c-8.957,0.209-8.217-1.339-8.217-1.339c-2.705-0.083-3.647,0.858-3.647,0.858  c0.368,0.254,1.875,7.3-2.908,9.702c3.821-0.026,7.694-0.434,7.656,4.775c0.662,3.272-5.071,2.483-5.071,2.483  c-10.823-1.189-17.775-0.061-25.867,0.253c-4.788,0.185-8.411-1.047-9.966-3.095c0,0-2.772,0.507-3.946,2.463  C9.625,83.969,11.526,90.243,39.845,85.655z"></path><path xmlns="http://www.w3.org/2000/svg" d="M89.476,84.988c-0.151-0.608-0.622-1.015-1.324-1.145l-0.725-0.129c-1.359-0.239-2.534-0.444-3.264-1.051  c-0.558-0.46-0.414-2.571-0.328-3.831c0.038-0.537,0.065-0.999,0.066-1.389c0.487-1.133,0.762-2.381,0.762-3.695  c0-5.127-4.108-8.173-9.176-8.173c-5.062,0-9.17,3.045-9.17,8.173c0,5.125,4.107,9.283,9.17,9.283c3.019,0,5.689-1.482,7.361-3.759  c-0.105,1.672-0.146,3.426,0.703,4.128c0.926,0.767,2.215,0.993,3.709,1.255l0.717,0.128c0.428,0.08,0.529,0.275,0.571,0.436  c0.15,0.605-0.412,1.636-0.975,2.087c-0.996,0.793-1.371,0.995-3.442,1.534c-1.521,0.395-2.536,0.338-3.436,0.289  c-0.286-0.016-0.555-0.031-0.815-0.031c-0.008,0-0.014,0-0.017,0c-1.538,0-4.168-1.07-4.195-1.081l-0.115-0.031  c-0.44-0.061-1.267-0.26-2.141-0.472c-0.891-0.215-1.811-0.438-2.535-0.568c-5.42-0.971-6.693,1.03-7.537,2.354  c-0.19,0.301-0.355,0.561-0.531,0.715l0.634,0.716c0.275-0.244,0.485-0.571,0.703-0.917c0.751-1.175,1.773-2.787,6.563-1.926  c0.696,0.125,1.6,0.344,2.476,0.556c0.865,0.208,1.68,0.407,2.179,0.481c0.412,0.166,2.888,1.13,4.501,1.13c0.001,0,0.003,0,0.005,0  c0.264,0.01,0.504,0.014,0.774,0.029c0.915,0.051,2.062,0.115,3.728-0.317c2.105-0.548,2.638-0.787,3.797-1.711  C89.005,87.389,89.728,85.998,89.476,84.988z"></path></g></svg>